<svg
  fill="none"
  height="49"
  viewBox="0 0 151 49"
  width="151"
  xmlns="http://www.w3.org/2000/svg"
>
  <path
    d="M16.9921 48.9602C5.61607 48.9602 0.0720665 44.7122 0.0720665 35.9282V35.7122H10.3681V37.2242C10.3681 39.8882 11.9521 40.4642 17.2081 40.4642C21.6001 40.4642 22.3201 39.8162 22.3201 38.0162C22.3201 36.0722 21.3121 35.6402 16.4881 34.7762L11.0161 33.7682C3.88807 32.4722 6.65039e-05 29.4482 6.65039e-05 22.7522C6.65039e-05 16.0562 5.47207 11.3042 15.7681 11.3042C24.6241 11.3042 31.3921 15.4802 31.3921 23.6162V24.6242H21.0961V23.6162C21.0961 21.2402 20.0881 19.9442 15.4801 19.9442C11.1601 19.9442 10.1521 20.8802 10.1521 22.6082C10.1521 24.3362 10.8001 24.8402 15.1201 25.7042L21.7441 27.0722C29.3761 28.5122 32.5441 31.9682 32.5441 37.8722C32.5441 44.6402 27.0001 48.9602 16.9921 48.9602ZM47.8834 48.3842C38.4514 48.3842 33.9154 44.9282 33.9154 36.3602V20.9522H28.1554V12.0242H34.2034L36.2194 3.60023H44.7154V12.0242H54.9394V20.9522H44.7154V35.1362C44.7154 38.3042 45.7954 38.6642 50.4754 38.6642H54.9394V47.6642C53.2114 48.0242 50.4034 48.3842 47.8834 48.3842ZM64.9756 48.2402H54.2476V12.0242H64.2556V17.8562H64.6876C66.4876 14.1842 69.7276 11.3042 74.8396 11.3042C82.3996 11.3042 85.2076 16.9202 85.2076 24.1922V27.5042H74.4796V25.5602C74.4796 21.6722 73.2556 20.4482 69.8716 20.4482C66.5596 20.4482 64.9756 21.6002 64.9756 25.5602V48.2402ZM92.8784 48.9602C86.4704 48.9602 81.5024 45.5762 81.5024 39.0242C81.5024 33.4082 85.5344 29.9522 93.0224 28.8002L105.406 26.9282V25.7762C105.406 21.5282 103.102 20.7362 98.8544 20.7362C94.4624 20.7362 92.7344 21.9602 92.7344 25.6322V26.4242H82.4384V25.6322C82.4384 16.9922 89.1344 11.3042 99.3584 11.3042C110.014 11.3042 115.63 17.1362 115.63 26.7842V48.2402H105.622V43.3442H105.19C103.246 46.0082 99.5744 48.9602 92.8784 48.9602ZM91.7984 38.1602C91.7984 40.1042 93.3104 40.7522 96.4784 40.7522C100.87 40.7522 105.406 39.6002 105.406 33.9842L95.0384 35.5682C92.8064 35.9282 91.7984 36.6482 91.7984 38.1602ZM126.426 7.92023H115.842L115.698 0.000233173H126.426V7.92023ZM126.642 48.2402H115.842V12.0242H126.642V48.2402ZM143.39 48.3842C133.958 48.3842 129.422 44.9282 129.422 36.3602V20.9522H123.662V12.0242H129.71L131.726 3.60023H140.222V12.0242H150.446V20.9522H140.222V35.1362C140.222 38.3042 141.302 38.6642 145.982 38.6642H150.446V47.6642C148.718 48.0242 145.91 48.3842 143.39 48.3842Z"
    fill="white"
  />
</svg>
