<svg width="209" height="69" viewBox="0 0 209 69" fill="none" xmlns="http://www.w3.org/2000/svg">
<path d="M1.152 67.5361C0.816 67.5361 0.528 67.3681 0.288 67.0321C0.096 66.7441 0 66.4321 0 66.0961C0.0479999 65.3761 0.216 64.9681 0.504 64.8721C0.84 64.8241 1.224 64.8001 1.656 64.8001C2.952 64.8001 3.84 64.5601 4.32 64.0801C4.848 63.6481 5.16 63.0481 5.256 62.2801C5.352 61.5121 5.4 60.7201 5.4 59.9041V28.6561C5.4 27.7921 5.352 27.0001 5.256 26.2801C5.208 25.5121 4.944 24.9121 4.464 24.4801C3.984 24.0001 3.072 23.7601 1.728 23.7601C1.296 23.7601 0.888 23.7121 0.504 23.6161C0.168 23.4721 0 23.0401 0 22.3201C0 21.6001 0.384 21.1681 1.152 21.0241C3.36 20.6881 5.04 20.3521 6.192 20.0161C7.392 19.6801 8.28 19.3921 8.856 19.1521C9.48 18.9121 10.032 18.7681 10.512 18.7201C10.896 18.6721 11.208 18.7441 11.448 18.9361C11.736 19.1281 11.88 19.5121 11.88 20.0881V23.5441H12.096C13.44 22.2961 15.048 21.2401 16.92 20.3761C18.792 19.5121 20.592 19.0801 22.32 19.0801C25.248 19.0801 27.84 19.8001 30.096 21.2401C32.352 22.6801 34.128 24.6961 35.424 27.2881C36.72 29.8321 37.368 32.8081 37.368 36.2161C37.368 39.6721 36.576 42.6961 34.992 45.2881C33.408 47.8801 31.368 49.8961 28.872 51.3361C26.376 52.7281 23.712 53.4241 20.88 53.4241C18.72 53.4241 16.968 53.1841 15.624 52.7041C14.328 52.2721 13.2 51.7681 12.24 51.1921H11.952V59.9041C11.952 60.7201 12 61.5121 12.096 62.2801C12.192 63.0481 12.504 63.6481 13.032 64.0801C13.56 64.5601 14.448 64.8001 15.696 64.8001C16.128 64.8001 16.488 64.8241 16.776 64.8721C17.112 64.9681 17.304 65.3761 17.352 66.0961C17.352 66.4321 17.256 66.7441 17.064 67.0321C16.872 67.3681 16.584 67.5361 16.2 67.5361C14.808 67.4401 13.512 67.3681 12.312 67.3201C11.16 67.3201 9.936 67.3201 8.64 67.3201C7.344 67.3201 6.12 67.3201 4.968 67.3201C3.816 67.3681 2.544 67.4401 1.152 67.5361ZM20.304 50.9761C22.176 50.9761 23.736 50.5201 24.984 49.6081C26.232 48.6481 27.216 47.4481 27.936 46.0081C28.704 44.5201 29.232 42.9361 29.52 41.2561C29.856 39.5281 30.024 37.9201 30.024 36.4321C30.024 34.1761 29.664 32.0161 28.944 29.9521C28.272 27.8401 27.168 26.1121 25.632 24.7681C24.144 23.3761 22.176 22.6801 19.728 22.6801C17.904 22.6801 16.392 23.0641 15.192 23.8321C13.992 24.5521 12.912 25.4161 11.952 26.4241V45.7201C12.48 46.9681 13.44 48.1681 14.832 49.3201C16.272 50.4241 18.096 50.9761 20.304 50.9761ZM52.9189 53.4241C49.5589 53.4241 46.6069 52.6321 44.0629 51.0481C41.5669 49.4641 39.6229 47.4001 38.2309 44.8561C36.8389 42.3121 36.1429 39.6001 36.1429 36.7201C36.1429 33.8881 36.6469 31.3681 37.6549 29.1601C38.6629 26.9521 39.9829 25.1041 41.6149 23.6161C43.2949 22.1281 45.1189 21.0001 47.0869 20.2321C49.0549 19.4641 50.9989 19.0801 52.9189 19.0801C56.2789 19.0801 59.2069 19.8721 61.7029 21.4561C64.2469 23.0401 66.2149 25.1041 67.6069 27.6481C68.9989 30.1921 69.6949 32.9041 69.6949 35.7841C69.6949 38.6161 69.1669 41.1361 68.1109 43.3441C67.1029 45.5521 65.7589 47.4001 64.0789 48.8881C62.4469 50.3761 60.6469 51.5041 58.6789 52.2721C56.7109 53.0401 54.7909 53.4241 52.9189 53.4241ZM52.9189 50.7601C55.2709 50.7601 57.1189 50.0641 58.4629 48.6721C59.8549 47.2801 60.8389 45.4561 61.4149 43.2001C62.0389 40.8961 62.3509 38.4241 62.3509 35.7841C62.3509 33.2401 62.0389 30.9121 61.4149 28.8001C60.7909 26.6881 59.7829 24.9841 58.3909 23.6881C56.9989 22.3921 55.1749 21.7441 52.9189 21.7441C50.5669 21.7441 48.6949 22.4401 47.3029 23.8321C45.9109 25.1761 44.9269 26.9761 44.3509 29.2321C43.7749 31.4401 43.4869 33.8881 43.4869 36.5761C43.4869 39.0721 43.7749 41.4001 44.3509 43.5601C44.9749 45.7201 45.9829 47.4721 47.3749 48.8161C48.7669 50.1121 50.6149 50.7601 52.9189 50.7601ZM67.6817 52.7761C67.3457 52.7761 67.0577 52.6321 66.8177 52.3441C66.6257 52.0081 66.5297 51.6721 66.5297 51.3361C66.5777 50.6161 66.7457 50.2321 67.0337 50.1841C67.3697 50.0881 67.7537 50.0401 68.1857 50.0401C69.5297 50.0401 70.4417 49.8241 70.9217 49.3921C71.4497 48.9121 71.7377 48.2881 71.7857 47.5201C71.8817 46.7521 71.9297 45.9601 71.9297 45.1441V10.0081C71.9297 9.14406 71.8817 8.35206 71.7857 7.63206C71.7377 6.86406 71.4737 6.26406 70.9937 5.83206C70.5137 5.35206 69.6017 5.11206 68.2577 5.11206C67.8257 5.11206 67.4177 5.06406 67.0337 4.96806C66.6977 4.82406 66.5297 4.39206 66.5297 3.67206C66.5297 2.95206 66.9137 2.52006 67.6817 2.37606C69.8897 2.04006 71.5697 1.70406 72.7217 1.36806C73.9217 1.03206 74.8337 0.744055 75.4577 0.504055C76.0817 0.264055 76.6337 0.120056 77.1137 0.0720563C77.4977 0.0240569 77.8097 0.0960574 78.0497 0.288058C78.3377 0.480055 78.4817 0.864055 78.4817 1.44006V45.1441C78.4817 45.9601 78.5057 46.7521 78.5537 47.5201C78.6497 48.2881 78.9377 48.9121 79.4177 49.3921C79.9457 49.8241 80.8817 50.0401 82.2257 50.0401C82.6577 50.0401 83.0177 50.0881 83.3057 50.1841C83.6417 50.2321 83.8337 50.6161 83.8817 51.3361C83.8817 51.6721 83.7857 52.0081 83.5937 52.3441C83.4017 52.6321 83.1137 52.7761 82.7297 52.7761C81.3377 52.6801 80.0417 52.6081 78.8417 52.5601C77.6897 52.5601 76.4657 52.5601 75.1697 52.5601C73.8737 52.5601 72.6497 52.5601 71.4977 52.5601C70.3457 52.6081 69.0737 52.6801 67.6817 52.7761ZM84.5544 68.2561C83.1624 68.2561 81.8424 67.9441 80.5944 67.3201C79.3944 66.6961 78.4344 65.8561 77.7144 64.8001C76.9944 63.7921 76.6344 62.6881 76.6344 61.4881C76.6824 60.1921 76.9704 59.1841 77.4984 58.4641C77.9784 57.7921 78.5304 57.3121 79.1544 57.0241C79.7784 56.7841 80.3064 56.6401 80.7384 56.5921C81.1704 56.5441 81.3384 56.5201 81.2424 56.5201C82.1544 56.5201 82.8504 56.6881 83.3304 57.0241C83.8104 57.4081 84.0504 57.7201 84.0504 57.9601C84.0504 58.0561 83.8584 58.2721 83.4744 58.6081C83.1384 58.9921 82.9464 59.6401 82.8984 60.5521C82.8504 61.4161 83.1144 62.2561 83.6904 63.0721C84.2664 63.8881 85.1544 64.2961 86.3544 64.2961C87.6984 64.2961 88.9224 63.7921 90.0264 62.7841C91.1304 61.8241 92.1144 60.6241 92.9784 59.1841C93.8424 57.7441 94.5864 56.3521 95.2104 55.0081C95.5464 53.9521 95.5224 52.8481 95.1384 51.6961C93.9864 49.1041 92.8584 46.3441 91.7544 43.4161C90.6504 40.4881 89.5704 37.6561 88.5144 34.9201C87.5064 32.1841 86.4984 29.7841 85.4904 27.7201C84.7224 25.9441 83.9784 24.6961 83.2584 23.9761C82.5384 23.2081 81.4584 22.7281 80.0184 22.5361C79.3944 22.4401 78.9624 22.3441 78.7224 22.2481C78.5304 22.1521 78.4104 21.7921 78.3624 21.1681C78.3144 20.3521 78.5304 19.9201 79.0104 19.8721C79.5384 19.7761 80.1624 19.7041 80.8824 19.6561C83.8584 19.5121 86.1864 19.9441 87.8664 20.9521C89.5464 21.9601 90.9144 23.6641 91.9704 26.0641C92.6424 27.5521 93.3864 29.4001 94.2024 31.6081C95.0184 33.8161 95.8824 36.0481 96.7944 38.3041C97.7064 40.5601 98.5944 42.6001 99.4584 44.4241H99.6744L106.73 25.5601C107.21 24.1681 107.234 23.3041 106.802 22.9681C106.37 22.6321 105.434 22.4641 103.994 22.4641C103.562 22.4641 103.202 22.4401 102.914 22.3921C102.626 22.2961 102.458 21.8881 102.41 21.1681C102.41 20.8801 102.482 20.5681 102.626 20.2321C102.818 19.8961 103.082 19.7281 103.418 19.7281C104.81 19.7761 106.01 19.8241 107.018 19.8721C108.026 19.9201 109.154 19.9441 110.402 19.9441C111.266 19.9441 111.962 19.9441 112.49 19.9441C113.018 19.8961 113.57 19.8721 114.146 19.8721C114.722 19.8241 115.466 19.7761 116.378 19.7281C116.762 19.7281 117.026 19.8961 117.17 20.2321C117.362 20.5681 117.458 20.8801 117.458 21.1681C117.41 21.8881 117.218 22.2961 116.882 22.3921C116.594 22.4401 116.258 22.4641 115.874 22.4641C114.29 22.4641 113.018 22.7521 112.058 23.3281C111.146 23.9041 110.354 25.0321 109.682 26.7121C109.682 26.7121 109.418 27.3361 108.89 28.5841C108.41 29.8321 107.762 31.4641 106.946 33.4801C106.13 35.4961 105.266 37.6321 104.354 39.8881C103.442 42.0961 102.578 44.2081 101.762 46.2241C100.946 48.2401 100.274 49.8961 99.7464 51.1921C99.2184 52.4881 98.9304 53.1841 98.8824 53.2801C98.2584 54.7681 97.4904 56.3761 96.5784 58.1041C95.7144 59.8801 94.6824 61.5121 93.4824 63.0001C92.3304 64.5361 91.0104 65.7841 89.5224 66.7441C88.0344 67.7521 86.3784 68.2561 84.5544 68.2561ZM126.672 68.2561C116.544 68.2561 111.48 65.3761 111.48 59.6161C111.48 58.0321 111.984 56.6161 112.992 55.3681C114 54.1681 115.344 53.5681 117.024 53.5681C118.128 53.5681 119.04 53.8561 119.76 54.4321C120.48 55.0561 120.84 55.4881 120.84 55.7281C120.84 55.8241 120.648 56.0401 120.264 56.3761C119.928 56.7121 119.568 57.1681 119.184 57.7441C118.848 58.3201 118.68 59.0881 118.68 60.0481C118.68 63.7441 121.848 65.5921 128.184 65.5921C131.784 65.5921 134.568 64.9681 136.536 63.7201C138.552 62.4721 139.56 60.5761 139.56 58.0321C139.56 56.6401 139.104 55.5841 138.192 54.8641C137.328 54.1441 136.152 53.6401 134.664 53.3521C133.224 53.0641 131.616 52.8721 129.84 52.7761C128.064 52.7281 126.264 52.6801 124.44 52.6321C122.664 52.5841 121.008 52.4401 119.472 52.2001C117.792 51.9121 116.376 51.3601 115.224 50.5441C114.12 49.6801 113.568 48.2881 113.568 46.3681C113.568 44.5921 114.192 43.0561 115.44 41.7601C116.736 40.4161 118.656 39.7441 121.2 39.7441C118.128 38.5441 116.064 37.0801 115.008 35.3521C114 33.6241 113.496 31.8481 113.496 30.0241C113.496 27.9601 114.072 26.1121 115.224 24.4801C116.424 22.8001 118.056 21.4801 120.12 20.5201C122.232 19.5121 124.656 19.0081 127.392 19.0081C128.736 19.0081 130.128 19.1281 131.568 19.3681C133.056 19.5601 134.328 19.9201 135.384 20.4481L145.248 18.5761C145.776 18.5281 146.136 18.6961 146.328 19.0801C146.52 19.4641 146.616 19.8721 146.616 20.3041C146.616 20.9281 146.52 21.5521 146.328 22.1761C146.136 22.7521 145.872 23.0401 145.536 23.0401L138.408 22.7521V22.8961C139.224 23.7121 139.92 24.7921 140.496 26.1361C141.072 27.4801 141.36 28.7521 141.36 29.9521C141.36 32.2561 140.688 34.2481 139.344 35.9281C138.048 37.6081 136.368 38.9041 134.304 39.8161C132.288 40.6801 130.176 41.1121 127.968 41.1121H124.8C122.304 41.1121 120.48 41.3521 119.328 41.8321C118.224 42.3121 117.672 43.1041 117.672 44.2081C117.672 45.0721 117.96 45.7441 118.536 46.2241C119.16 46.6561 120.264 46.9201 121.848 47.0161L131.712 47.3761C136.848 47.5681 140.496 48.3841 142.656 49.8241C144.864 51.2641 145.968 53.4001 145.968 56.2321C145.968 58.7761 145.152 60.9361 143.52 62.7121C141.936 64.5361 139.68 65.9041 136.752 66.8161C133.872 67.7761 130.512 68.2561 126.672 68.2561ZM127.392 39.0241C129.6 39.0241 131.4 38.2561 132.792 36.7201C134.184 35.1361 134.88 32.8801 134.88 29.9521C134.88 27.2641 134.16 25.1521 132.72 23.6161C131.328 22.0321 129.528 21.2401 127.32 21.2401C125.208 21.2401 123.432 22.0081 121.992 23.5441C120.6 25.0321 119.904 27.1201 119.904 29.8081C119.904 32.7361 120.6 35.0161 121.992 36.6481C123.432 38.2321 125.232 39.0241 127.392 39.0241ZM142.48 52.7761C142.144 52.7761 141.856 52.6321 141.616 52.3441C141.424 52.0081 141.328 51.6721 141.328 51.3361C141.376 50.6161 141.544 50.2321 141.832 50.1841C142.168 50.0881 142.552 50.0401 142.984 50.0401C144.328 50.0401 145.24 49.8241 145.72 49.3921C146.248 48.9121 146.536 48.2881 146.584 47.5201C146.68 46.7521 146.728 45.9601 146.728 45.1441V10.0081C146.728 9.14406 146.68 8.35206 146.584 7.63206C146.536 6.86406 146.272 6.26406 145.792 5.83206C145.312 5.35206 144.4 5.11206 143.056 5.11206C142.624 5.11206 142.216 5.06406 141.832 4.96806C141.496 4.82406 141.328 4.39206 141.328 3.67206C141.328 2.95206 141.712 2.52006 142.48 2.37606C144.688 2.04006 146.368 1.70406 147.52 1.36806C148.72 1.03206 149.632 0.744055 150.256 0.504055C150.88 0.264055 151.432 0.120056 151.912 0.0720563C152.296 0.0240569 152.608 0.0960574 152.848 0.288058C153.136 0.480055 153.28 0.864055 153.28 1.44006V45.1441C153.28 45.9601 153.304 46.7521 153.352 47.5201C153.448 48.2881 153.736 48.9121 154.216 49.3921C154.744 49.8241 155.68 50.0401 157.024 50.0401C157.456 50.0401 157.816 50.0881 158.104 50.1841C158.44 50.2321 158.632 50.6161 158.68 51.3361C158.68 51.6721 158.584 52.0081 158.392 52.3441C158.2 52.6321 157.912 52.7761 157.528 52.7761C156.136 52.6801 154.84 52.6081 153.64 52.5601C152.488 52.5601 151.264 52.5601 149.968 52.5601C148.672 52.5601 147.448 52.5601 146.296 52.5601C145.144 52.6081 143.872 52.6801 142.48 52.7761ZM172.31 53.4241C168.95 53.4241 165.998 52.6321 163.454 51.0481C160.958 49.4641 159.014 47.4001 157.622 44.8561C156.23 42.3121 155.534 39.6001 155.534 36.7201C155.534 33.8881 156.038 31.3681 157.046 29.1601C158.054 26.9521 159.374 25.1041 161.006 23.6161C162.686 22.1281 164.51 21.0001 166.478 20.2321C168.446 19.4641 170.39 19.0801 172.31 19.0801C175.67 19.0801 178.598 19.8721 181.094 21.4561C183.638 23.0401 185.606 25.1041 186.998 27.6481C188.39 30.1921 189.086 32.9041 189.086 35.7841C189.086 38.6161 188.558 41.1361 187.502 43.3441C186.494 45.5521 185.15 47.4001 183.47 48.8881C181.838 50.3761 180.038 51.5041 178.07 52.2721C176.102 53.0401 174.182 53.4241 172.31 53.4241ZM172.31 50.7601C174.662 50.7601 176.51 50.0641 177.854 48.6721C179.246 47.2801 180.23 45.4561 180.806 43.2001C181.43 40.8961 181.742 38.4241 181.742 35.7841C181.742 33.2401 181.43 30.9121 180.806 28.8001C180.182 26.6881 179.174 24.9841 177.782 23.6881C176.39 22.3921 174.566 21.7441 172.31 21.7441C169.958 21.7441 168.086 22.4401 166.694 23.8321C165.302 25.1761 164.318 26.9761 163.742 29.2321C163.166 31.4401 162.878 33.8881 162.878 36.5761C162.878 39.0721 163.166 41.4001 163.742 43.5601C164.366 45.7201 165.374 47.4721 166.766 48.8161C168.158 50.1121 170.006 50.7601 172.31 50.7601ZM200.027 53.7841C198.587 53.7841 197.219 53.4241 195.923 52.7041C194.627 51.9841 193.547 50.8801 192.683 49.3921C191.867 47.9041 191.459 46.0321 191.459 43.7761V22.6081L187.283 22.7521C186.947 22.7521 186.683 22.6321 186.491 22.3921C186.347 22.1041 186.275 21.7921 186.275 21.4561C186.275 20.4961 186.611 19.9441 187.283 19.8001C189.059 19.4641 190.403 18.9121 191.315 18.1441C192.227 17.3281 192.923 16.3681 193.403 15.2641C193.931 14.1601 194.411 12.9601 194.843 11.6641C194.987 11.2801 195.203 11.0401 195.491 10.9441C195.779 10.8001 196.091 10.7281 196.427 10.7281C196.715 10.7281 197.027 10.8001 197.363 10.9441C197.747 11.0881 197.939 11.3521 197.939 11.7361L197.435 19.9441L205.859 19.4401C206.291 19.3921 206.579 19.5121 206.723 19.8001C206.867 20.0881 206.939 20.4241 206.939 20.8081C206.939 21.2881 206.843 21.7681 206.651 22.2481C206.507 22.7281 206.315 22.9681 206.075 22.9681L198.011 22.7521V44.6401C198.011 46.0321 198.299 47.3041 198.875 48.4561C199.499 49.6081 200.603 50.1841 202.187 50.1841C202.715 50.1841 203.315 50.1361 203.987 50.0401C204.659 49.9441 205.379 49.7281 206.147 49.3921C206.339 49.2961 206.531 49.2241 206.723 49.1761C206.915 49.0801 207.107 49.0321 207.299 49.0321C207.683 49.0321 207.971 49.2001 208.163 49.5361C208.355 49.8241 208.523 50.1361 208.667 50.4721C208.811 50.9041 208.691 51.2401 208.307 51.4801C206.819 52.4401 205.451 53.0641 204.203 53.3521C202.955 53.6401 201.563 53.7841 200.027 53.7841Z" fill="#5FA7D6"/>
</svg>
