<svg width="400" height="400" viewBox="0 0 400 400" fill="none" xmlns="http://www.w3.org/2000/svg">
<g clip-path="url(#clip0_2099_108270)">
<path d="M400 0H0V400H400V0Z" fill="white"/>
<path d="M188.46 336.679C184.371 334.651 180.078 330.121 178.365 326.023C177.457 323.834 177.202 316.733 177.202 293.004V262.768L184.405 252.46C194.925 237.41 197.903 233.677 199.405 233.677C200.177 233.677 205.131 239.811 211.036 248.066L221.318 262.446V293.496V324.547L218.892 328.314C213.81 336.221 209.449 338.452 199.074 338.452C193.653 338.452 191.226 338.045 188.46 336.679ZM89.9552 276.894C85.2467 274.501 81.5393 270.336 78.7057 264.219C76.4066 259.264 76.5423 250.806 79.0026 245.987C80.8182 242.432 82.218 241.499 107.915 226.72C127.691 215.352 135.649 211.195 137.66 211.195C140.968 211.195 170.39 215.98 171.026 216.616C171.281 216.862 170.645 218.847 169.618 221.028C168.6 223.2 167.056 226.746 166.199 228.901C165.334 231.064 162.873 236.545 160.718 241.092C157.232 248.464 156.426 249.55 153.219 251.179C149.282 253.173 117.892 270.709 109.756 275.46C102.588 279.642 96.2587 280.1 89.9552 276.894ZM277.286 268.8C267.266 263.158 254.99 256.269 249.993 253.495C241.264 248.643 240.839 248.269 238.634 243.612C234.485 234.839 226.587 216.718 226.799 216.48C227.443 215.776 257.052 211.076 261.192 211.017C262.965 210.991 313.282 238.886 317.032 241.974C321.164 245.368 323.327 255.701 321.121 261.453C316.981 272.261 308.752 279.065 299.827 279.065C295.874 279.065 293.965 278.192 277.286 268.8ZM126.3 187.271C121.396 184.437 110.138 178.04 101.273 173.06C92.407 168.072 84.2626 163.448 83.1682 162.778C82.0823 162.108 80.2667 159.766 79.1384 157.561C76.1521 151.715 76.2963 144.546 79.5541 137.81C84.0675 128.461 89.5734 124.643 98.4814 124.686L103.818 124.703L130.117 139.762L156.417 154.812L164.282 170.439C168.608 179.033 172.01 186.465 171.849 186.948C171.578 187.771 142.012 192.471 137.329 192.446C136.158 192.437 131.203 190.113 126.3 187.271ZM243.8 190.342C227.647 187.924 226.408 187.661 226.408 186.567C226.408 186.108 229.836 178.889 234.018 170.532L241.62 155.329L251.622 149.628C257.12 146.489 264.602 142.247 268.242 140.203C271.89 138.158 276.285 135.613 277.998 134.553C279.721 133.484 284.429 130.82 288.467 128.631C294.737 125.246 296.51 124.66 300.591 124.66C309.914 124.66 317.787 131.371 321.088 142.112C323.387 149.594 320.791 159.198 315.488 162.88C314.317 163.686 302.016 170.693 288.145 178.439C269.124 189.061 262.236 192.514 260.148 192.454C258.621 192.412 251.266 191.462 243.8 190.342ZM195.774 165.595C194.136 163.38 192.159 160.615 191.387 159.444C190.607 158.273 187.086 153.319 183.557 148.432L177.126 139.532L177.381 107.286L177.627 75.0302L179.909 71.1447C181.164 69.0067 183.837 66.1477 185.847 64.7818C189.3 62.4488 190.055 62.2961 199.26 62.084C208.737 61.8634 209.11 61.9228 212.385 64.2304C214.243 65.5284 216.915 68.2432 218.323 70.2539L220.894 73.9019L221.14 106.887L221.395 139.872L210.993 154.752C205.267 162.931 200.177 169.624 199.676 169.624C199.176 169.624 197.419 167.809 195.774 165.595Z" fill="#FF4F00"/>
</g>
<defs>
<clipPath id="clip0_2099_108270">
<rect width="400" height="400" fill="white"/>
</clipPath>
</defs>
</svg>
