<svg width="552" height="239" viewBox="0 0 552 239" fill="none" xmlns="http://www.w3.org/2000/svg">
<path d="M201.472 181.408C190.349 181.408 181.233 179 174.124 174.184C167.015 169.368 162.715 162.488 161.224 153.544L181.176 148.384C181.979 152.397 183.297 155.551 185.132 157.844C187.081 160.137 189.432 161.8 192.184 162.832C195.051 163.749 198.147 164.208 201.472 164.208C206.517 164.208 210.244 163.348 212.652 161.628C215.06 159.793 216.264 157.557 216.264 154.92C216.264 152.283 215.117 150.276 212.824 148.9C210.531 147.409 206.861 146.205 201.816 145.288L197 144.428C191.037 143.281 185.591 141.733 180.66 139.784C175.729 137.72 171.773 134.911 168.792 131.356C165.811 127.801 164.32 123.215 164.32 117.596C164.32 109.111 167.416 102.632 173.608 98.16C179.8 93.5733 187.941 91.28 198.032 91.28C207.549 91.28 215.461 93.4013 221.768 97.644C228.075 101.887 232.203 107.448 234.152 114.328L214.028 120.52C213.111 116.163 211.219 113.067 208.352 111.232C205.6 109.397 202.16 108.48 198.032 108.48C193.904 108.48 190.751 109.225 188.572 110.716C186.393 112.092 185.304 114.041 185.304 116.564C185.304 119.316 186.451 121.38 188.744 122.756C191.037 124.017 194.133 124.992 198.032 125.68L202.848 126.54C209.269 127.687 215.06 129.235 220.22 131.184C225.495 133.019 229.623 135.713 232.604 139.268C235.7 142.708 237.248 147.409 237.248 153.372C237.248 162.316 233.98 169.253 227.444 174.184C221.023 179 212.365 181.408 201.472 181.408ZM273.48 179C267.861 179 263.274 177.28 259.72 173.84C256.28 170.285 254.56 165.584 254.56 159.736V111.576H233.232V93.688H254.56V67.2H276.232V93.688H299.624V111.576H276.232V155.952C276.232 159.392 277.837 161.112 281.048 161.112H297.56V179H273.48ZM305.481 179V93.688H326.809V103.32H329.905C331.166 99.88 333.23 97.3573 336.097 95.752C339.078 94.1467 342.518 93.344 346.417 93.344H356.737V112.608H346.073C340.569 112.608 336.04 114.099 332.485 117.08C328.93 119.947 327.153 124.419 327.153 130.496V179H305.481ZM384.389 181.408C378.311 181.408 372.865 180.376 368.049 178.312C363.233 176.133 359.391 173.037 356.525 169.024C353.773 164.896 352.397 159.908 352.397 154.06C352.397 148.212 353.773 143.339 356.525 139.44C359.391 135.427 363.29 132.445 368.221 130.496C373.266 128.432 378.999 127.4 385.421 127.4H408.813V122.584C408.813 118.571 407.551 115.303 405.029 112.78C402.506 110.143 398.493 108.824 392.989 108.824C387.599 108.824 383.586 110.085 380.949 112.608C378.311 115.016 376.591 118.169 375.789 122.068L355.837 115.36C357.213 111.003 359.391 107.047 362.373 103.492C365.469 99.8227 369.539 96.8987 374.585 94.72C379.745 92.4267 385.994 91.28 393.333 91.28C404.57 91.28 413.457 94.0893 419.993 99.708C426.529 105.327 429.797 113.468 429.797 124.132V155.952C429.797 159.392 431.402 161.112 434.613 161.112H441.493V179H427.045C422.802 179 419.305 177.968 416.553 175.904C413.801 173.84 412.425 171.088 412.425 167.648V167.476H409.157C408.698 168.852 407.666 170.687 406.061 172.98C404.455 175.159 401.933 177.108 398.493 178.828C395.053 180.548 390.351 181.408 384.389 181.408ZM388.173 163.864C394.25 163.864 399.181 162.201 402.965 158.876C406.863 155.436 408.813 150.907 408.813 145.288V143.568H386.969C382.955 143.568 379.802 144.428 377.509 146.148C375.215 147.868 374.069 150.276 374.069 153.372C374.069 156.468 375.273 158.991 377.681 160.94C380.089 162.889 383.586 163.864 388.173 163.864ZM443.578 179V93.688H465.25V179H443.578ZM454.414 83.712C450.515 83.712 447.19 82.4507 444.438 79.928C441.801 77.4053 440.482 74.08 440.482 69.952C440.482 65.824 441.801 62.4987 444.438 59.976C447.19 57.4533 450.515 56.192 454.414 56.192C458.427 56.192 461.753 57.4533 464.39 59.976C467.027 62.4987 468.346 65.824 468.346 69.952C468.346 74.08 467.027 77.4053 464.39 79.928C461.753 82.4507 458.427 83.712 454.414 83.712ZM508.186 179C502.567 179 497.98 177.28 494.426 173.84C490.986 170.285 489.266 165.584 489.266 159.736V111.576H467.938V93.688H489.266V67.2H510.938V93.688H534.33V111.576H510.938V155.952C510.938 159.392 512.543 161.112 515.754 161.112H532.266V179H508.186Z" fill="#FF4F00"/>
<path d="M60.9621 194.032C58.7255 192.924 56.3776 190.45 55.4403 188.211C54.9438 187.016 54.8046 183.137 54.8046 170.176V153.661L58.7441 148.031C64.4978 139.81 66.1265 137.771 66.9478 137.771C67.3701 137.771 70.0799 141.122 73.3094 145.63L78.9332 153.485V170.445V187.405L77.6061 189.462C74.8267 193.781 72.4417 195 66.7668 195C63.8018 195 62.4747 194.778 60.9621 194.032ZM7.08571 161.376C4.51044 160.07 2.48271 157.794 0.932917 154.453C-0.324554 151.747 -0.250312 147.127 1.09532 144.495C2.08831 142.553 2.85393 142.044 16.9088 133.971C27.7249 127.762 32.0774 125.491 33.1771 125.491C34.9867 125.491 51.0786 128.105 51.4266 128.452C51.5658 128.587 51.2178 129.671 50.6564 130.862C50.0996 132.048 49.2551 133.985 48.7864 135.162C48.3131 136.344 46.9675 139.338 45.7889 141.821C43.8818 145.848 43.441 146.441 41.687 147.331C39.534 148.42 22.3656 157.998 17.9157 160.593C13.9948 162.878 10.5333 163.128 7.08571 161.376ZM109.544 156.956C104.064 153.874 97.3498 150.111 94.6168 148.596C89.8421 145.945 89.6101 145.742 88.4037 143.198C86.1347 138.406 81.8147 128.508 81.9307 128.378C82.2834 127.994 98.4774 125.427 100.742 125.394C101.712 125.38 129.232 140.616 131.283 142.303C133.543 144.157 134.726 149.801 133.52 152.943C131.255 158.846 126.754 162.563 121.873 162.563C119.711 162.563 118.667 162.085 109.544 156.956ZM26.964 112.424C24.282 110.876 18.1245 107.382 13.2756 104.662C8.4267 101.937 3.97219 99.4118 3.37362 99.0457C2.77968 98.6796 1.7867 97.4007 1.16956 96.1959C-0.463757 93.0031 -0.384875 89.0874 1.39693 85.4081C3.86547 80.3016 6.8769 78.2163 11.749 78.2395L14.6677 78.2487L29.052 86.4739L43.4364 94.6945L47.7377 103.23C50.1042 107.924 51.9649 111.984 51.8767 112.248C51.7282 112.697 35.5574 115.264 32.9961 115.25C32.3558 115.246 29.6459 113.976 26.964 112.424ZM91.2295 114.101C82.3947 112.781 81.7173 112.637 81.7173 112.039C81.7173 111.789 83.5919 107.845 85.8795 103.281L90.037 94.9771L95.5077 91.8631C98.5145 90.1486 102.607 87.8317 104.598 86.7149C106.593 85.5981 108.997 84.2079 109.934 83.6287C110.876 83.0448 113.451 81.5898 115.66 80.3942C119.089 78.5453 120.059 78.2256 122.29 78.2256C127.39 78.2256 131.696 81.891 133.501 87.7575C134.758 91.8446 133.339 97.0902 130.438 99.1013C129.798 99.5415 123.07 103.369 115.483 107.6C105.08 113.402 101.312 115.288 100.171 115.255C99.3358 115.232 95.3128 114.713 91.2295 114.101ZM64.9618 100.584C64.0663 99.3747 62.9852 97.8641 62.5629 97.2246C62.136 96.5851 60.2104 93.8789 58.2801 91.2098L54.7629 86.3488L54.9021 68.7353L55.0366 51.1172L56.2848 48.9949C56.9716 47.8271 58.4332 46.2655 59.5329 45.5195C61.4214 44.2451 61.8344 44.1617 66.8689 44.0459C72.0519 43.9254 72.2561 43.9578 74.0472 45.2182C75.0634 45.9272 76.525 47.4101 77.2953 48.5083L78.7012 50.5009L78.8358 68.5175L78.975 86.5342L73.2862 94.662C70.1541 99.1291 67.3701 102.785 67.0963 102.785C66.8225 102.785 65.862 101.794 64.9618 100.584Z" fill="#FF4F00"/>
</svg>
